<svg xmlns="http://www.w3.org/2000/svg" viewBox="0 0 32 32" width="32" height="32">
  <!-- Background circle -->
  <circle cx="16" cy="16" r="15" fill="#3B82F6" stroke="#1E40AF" stroke-width="2"/>
  
  <!-- Microphone icon -->
  <path d="M16 6c-2.2 0-4 1.8-4 4v6c0 2.2 1.8 4 4 4s4-1.8 4-4v-6c0-2.2-1.8-4-4-4z" fill="white"/>
  <rect x="14" y="20" width="4" height="6" rx="2" fill="white"/>
  <rect x="12" y="26" width="8" height="2" rx="1" fill="white"/>
  
  <!-- Sound waves -->
  <path d="M22 12c1.5 0 3 1.5 3 3s-1.5 3-3 3" stroke="white" stroke-width="2" fill="none" stroke-linecap="round"/>
  <path d="M24 12c2 0 4 2 4 4s-2 4-4 4" stroke="white" stroke-width="2" fill="none" stroke-linecap="round"/>
</svg>